<svg xmlns="http://www.w3.org/2000/svg" height="100" viewBox="0 0 146.15 146.01" width="100"><defs><style>.cls-1{stroke:#e41e26;stroke-width:2.01px;}.cls-1,.cls-10,.cls-7,.cls-8{stroke-miterlimit:10;}.cls-1,.cls-4,.cls-5,.cls-6,.cls-7,.cls-8{fill-rule:evenodd;}.cls-2,.cls-5,.cls-7{fill:#e41e26;}.cls-3,.cls-6,.cls-8{fill:#fff;}.cls-4,.cls-9{fill:#fcee18;}.cls-7,.cls-8{stroke:#000;stroke-width:0.51px;}.cls-10{fill:none;stroke:#231915;stroke-width:0.23px;}</style></defs><g id="Layer_2" data-name="Layer 2"><g id="Layer_1-2" data-name="Layer 1"><path class="cls-1" d="M73.08,1A72,72,0,1,1,1,73,72,72,0,0,1,73.08,1Z"/><polygon class="cls-2" points="50.18 58.32 50.18 61.27 41.95 61.27 41.95 87.72 31.65 87.72 31.65 61.27 23.34 61.27 23.34 58.32 50.18 58.32"/><polygon class="cls-3" points="62.41 73.12 62.41 87.72 52.68 87.72 52.68 58.32 62.41 58.32 62.41 70.17 70.41 70.17 70.41 58.32 80.14 58.32 80.14 87.72 70.41 87.72 70.41 73.12 62.41 73.12"/><path class="cls-3" d="M101.14,58.32l9.33,29.4h-9.78l-2-6.41H88.6l-2.16,6.41h-3.8l9.93-29.4Zm-11.58,20h8.23l-4-13Z"/><rect class="cls-3" x="113.14" y="58.32" width="9.7" height="29.4"/><path class="cls-4" d="M45.24,98.43c-.79,2.72,9.2,8,11,8.88a41.39,41.39,0,0,0,16.66,3.54,38.4,38.4,0,0,0,27.21-10.52s.65-.71.68-.73c.34-.8.25-.51-.06-1.11-.91-.88-4.42,2.61-7.15,3.57.65-2.69,2-5.92-.62-7.57-2.81-1.75-5.54.77-6.56,2.61-2.35,4.14-4.54,9.5-10.18,9.84a45.17,45.17,0,0,1-27.75-7.09c-1.08-.68-2-1.84-3.24-1.42Z"/><path class="cls-5" d="M83.46,105.72c2.84-.43,2.53-.23,3.72-2.38.6-1,1.25-3.35,2.1-3.94,2.3.11-.17,3.65-.68,4.87.93-.31,1.9-.48,2.35-1.27a21,21,0,0,0,1-2.81c.71-2,.77-5.78-2.38-3.74-1.22.79-3.12,4.79-4.48,6.86-.6.93-1.11,1.39-1.68,2.41Z"/><path class="cls-6" d="M100.43,94.24c-1,.82-.08,3.12,1.22,4.28.65.59,3.23,2,4.34.88,1.59-1.7-1.84-1.93-2.75-2.47-2.1-1.22-1.73-3.51-2.81-2.69Z"/><path class="cls-6" d="M40.08,99.6c4.62,1,7.06-4.4,5.59-5.36-1.22-.8-.77,1.56-2.84,2.72-1.53.82-3.94.28-2.75,2.64Z"/><path class="cls-7" d="M91.46,27.57c.2.08.4.37.57.54s.34.34.54.56L94.76,31c.17.14.7.51.39.88s-.74-.2-.88-.34L92,29.35c-.22-.2-.42-.42-.62-.62a3.49,3.49,0,0,1-.34-.31c-.06-.06-.12-.09-.17-.14l-.09-.15c-.11-.05,0,0-.14-.11a.23.23,0,0,1-.11-.11c-.2-.17-1.48-1.34-1.51-1.42a.56.56,0,0,0-.39-.14l.05.34,3.72,4.22c.06.06,0,0,.06.09h0a0,0,0,0,1,0,0c.17.08.08,0,.14.17s0,0,.08.05a3.9,3.9,0,0,1,.57.63c.14.08.11.11.26.22a1.55,1.55,0,0,1,.19.23c.68.68.06.91-.17.82s-1.93-1.9-2.12-2.12L88.91,28.5c-.28-.28-.68-.73-.94-.71-.11.34.17.57.34.77a2.92,2.92,0,0,1,.29.34c.11.14.2.2.23.34s.22.2.36.37.2.22.34.37l2,2.21a21.54,21.54,0,0,0,2.13,2l.77.65c.11,0,.65.37,1,.48,1.3.34,1.59-.56,2.44.17.26.23.54.43.79.65l1.59,1.39.8.74.71.71a14.24,14.24,0,0,1,1.56,1.53,6.46,6.46,0,0,1,.71.68l.65.68c1.22,1.28,2.1,2.32,3.23,3.54a7.82,7.82,0,0,1,.63.77c.06,0,0,0,.11.08.37.49.8,1.39,1.34,2.13.08.14.14.17.17.31s.08.09.17.23c.59.93.08.82,1,1.61a2.68,2.68,0,0,1,.76.74,3.24,3.24,0,0,1,.4,1.11,3.37,3.37,0,0,1,.31.76l.29.37c.11.06.25.23.39.31a3.44,3.44,0,0,0,.51.23,6.82,6.82,0,0,0,2.59-.34c0-.06.17-.11.25-.2s.14-.2.23-.25a7.25,7.25,0,0,0,.4-2.44l0-.12c-.14-.19-.08-.39-.39-.79s-.46-.34-.63-.51L115.1,49a.71.71,0,0,1-.2-.12l-.14-.08c-.45-.17-.68-.6-1-1-.57-.68-.74-.39-1.17-.68-.76-.48-1.5-1-2.3-1.44a4.51,4.51,0,0,1-1.1-.8l-3-2.6-1.9-1.87c-.6-.66-1.25-1.22-1.85-1.87-1.27-1.34-2.35-2.39-3.54-3.89-.09-.11-.15-.14-.15-.25-.51-.34,0-1,0-1.93a2,2,0,0,0-.2-.71l-.23-.45c-.08-.14,0-.06,0-.17L98.08,31a19.39,19.39,0,0,0-2.59-2.75l-2.92-2.61c-.08-.09,0,0-.08-.11l-.35-.26c-.34-.28-.76-.74-1-.59,0,.25.09.34.23.48l4.09,4.08c.14.11.34.2.45.31s.63.68.6.91a.37.37,0,0,1-.4.31,16.76,16.76,0,0,1-1.59-1.39c-1.28-1.19-2.61-2.35-3.91-3.49-.34-.25-.66-.62-.88-.53,0,0-.06.08,0,.19s.28.34.34.43c.31.34,1.33,1.39,1.44,1.59Z"/><path class="cls-8" d="M109.4,33.21c.14,1,.54,1.73-.91,2.8a8.93,8.93,0,0,1-.88.49l.06.48-1.22,1.25L105,39.64c-.14.17-.34.31-.48.48a1.79,1.79,0,0,0,.59.57c.2-.08.57-.54.77-.71a6.27,6.27,0,0,1,.79-.76.37.37,0,0,1,.23-.23c.06-.14,1-1.1,1.19-1.25s.31-.08.65-.08a8,8,0,0,1,.4-.77c.65-1,1.85-1.41,2.21-1.13l.71.11H113l.51,0c.11-.12.43-.15.62-.2a4.85,4.85,0,0,0,.54-.23c.37-.14.69-.4,1-.54a7,7,0,0,1,.76-.59c.26-.26.49-.46.71-.71L118.39,32a6.13,6.13,0,0,1,.57-1l.54-1a3.66,3.66,0,0,1,.31-.79c.08-.26.17-.66.26-.88a4.06,4.06,0,0,0,.05-2,2.09,2.09,0,0,0-.4-.73c-.31-.34-.48-.31-.65-.48-.42,0-1.22-.63-3.66.51a12.19,12.19,0,0,0-5,4,5.27,5.27,0,0,0-1,3.55Zm.59-.37a10.79,10.79,0,0,1,.51-1.56,5.9,5.9,0,0,1,.83-1.25c1.41-1.67,4.65-3.63,6.92-3.57a1.18,1.18,0,0,1,1.16.71l.12.17c0-1.53-1.62-1.64-2.9-1.28a10.14,10.14,0,0,0-3.09,1.45,10,10,0,0,0-2.33,2.13,5.45,5.45,0,0,0-.85,1.41,4.59,4.59,0,0,0-.37,1.79Z"/><path class="cls-8" d="M102.27,42.34a3.67,3.67,0,0,1-.7.73c-.26.26-.46.48-.71.74-.51.51-1,1-1.48,1.5-.43.34-.79.85-1.25,1.22-.31.23-.57.17-1,.23-.23,0-.88.05-1,.2a5.89,5.89,0,0,0-1.17.9c-.37.29-.71.57-1.08.91s-2,1.73-2.18,1.79,0,0-.17.14-.26.2-.37.45a1.5,1.5,0,0,0-.06.74A1.94,1.94,0,0,0,91.58,53a2.43,2.43,0,0,0,2.15,1.11,1.32,1.32,0,0,0,1-.71l2.18-2.61a.51.51,0,0,1,.26-.28c.14-.37.88-.82,1.13-1.42s.09-1.62.49-2l2.41-2.41c.08-.09,0-.06.17-.11s.11-.17.23-.23a2.42,2.42,0,0,1,.48-.54c.11-.08.08-.08.17-.11a.57.57,0,0,1,.25-.26,5.2,5.2,0,0,1,.77-.79,7.13,7.13,0,0,0,.77-.79,1.91,1.91,0,0,0-.57-.6Z"/><path class="cls-3" d="M34.94,29.61V41.37c0,4.59-1.62,6.92-4.85,6.92a5.76,5.76,0,0,1-3.66-1.22,3.75,3.75,0,0,1-1.48-3,12.46,12.46,0,0,1,.4-2.63l2-.51a12.92,12.92,0,0,0-.45,2.75c0,2,.59,3,1.78,3,.68,0,1-.93,1-2.8V29.61Zm16.83,0V41.88q0,6.3-7,6.29c-4.66,0-6.95-2.09-6.95-6.29V29.61h5.27V42a5.38,5.38,0,0,0,.71,3.29,3.06,3.06,0,0,0,2.56.88c2.38,0,3.6-1.45,3.6-4.31V29.61Zm14.78,5.13-2.44.45a7.3,7.3,0,0,0,.14-1.25c0-2.12-1.27-3.2-3.86-3.2-2,0-3,.74-3,2.21,0,1.11,1.13,2,3.4,2.81,4.37,1.53,6.56,3.74,6.56,6.69a5.18,5.18,0,0,1-1.85,4.19,7.43,7.43,0,0,1-4.91,1.56c-4.51,0-6.78-1.75-6.78-5.24a7.42,7.42,0,0,1,.09-1.05l2.55-.57a8.29,8.29,0,0,0-.31,2c0,2.26,1.3,3.4,3.92,3.4,2.07,0,3.12-.82,3.12-2.47,0-1.19-1.25-2.27-3.75-3.2C55.8,39.78,54,37.69,54,34.77a5,5,0,0,1,1.79-4,7.25,7.25,0,0,1,4.74-1.5c4,0,6,1.81,6,5.44Zm16-5.13v1.84H78V47.86H72.4V31.45H67.88V29.61Z"/><path class="cls-3" d="M94.78,41.83c0,.19-.08.34-.22.36l-.66.06-1.13.11a.47.47,0,0,0,.25.32,1.35,1.35,0,0,0,.43.08,1.64,1.64,0,0,0,.6-.14.9.9,0,0,1,.22-.14c.06,0,.14.11.23.31a1.21,1.21,0,0,1,.17.37s0,.05-.06.08a1.52,1.52,0,0,1-1.22.43,1.74,1.74,0,0,1-1.22-.46A1.52,1.52,0,0,1,91.69,42a1.78,1.78,0,0,1,.43-1.22,1.51,1.51,0,0,1,1.19-.49,1.32,1.32,0,0,1,1,.46,1.44,1.44,0,0,1,.45,1.08Zm-1.13-.2a.48.48,0,0,0-.14-.34.4.4,0,0,0-.34-.17.37.37,0,0,0-.34.17.53.53,0,0,0-.12.37c0,.05,0,.08.09.08s.39,0,.74-.06c.08,0,.11,0,.11,0ZM97,41a.23.23,0,0,1,0,.09.46.46,0,0,0-.2,0,.54.54,0,0,0-.31.09.27.27,0,0,0-.14.25.62.62,0,0,0,.14.31,2.85,2.85,0,0,1,.31.34.94.94,0,0,1,.17.51,1.77,1.77,0,0,1-.06.37.63.63,0,0,1-.2.29,1.93,1.93,0,0,1-.53.34,1.51,1.51,0,0,1-.66.14s-.14-.12-.28-.34A1.64,1.64,0,0,1,95,42.9a.1.1,0,0,1,.06,0l.45-.08c.17-.06.26-.17.26-.28a.45.45,0,0,0-.14-.34,4.61,4.61,0,0,0-.32-.34.88.88,0,0,1-.17-.49,1,1,0,0,1,.49-.82,1.72,1.72,0,0,1,.93-.31c.06,0,.12.11.26.34A1.53,1.53,0,0,1,97,41Zm2.61,1.65v.31a1,1,0,0,0,0,.28c0,.06,0,.09,0,.12l-.11.05a1.63,1.63,0,0,1-.91.23c-.63,0-.94-.23-.94-.71a5.38,5.38,0,0,1,0-.62v-.65a.13.13,0,0,0-.14-.14h-.06l0,0c-.08,0-.14,0-.14-.11a.27.27,0,0,1,0-.14v-.37a.62.62,0,0,1,0-.2c0-.06.09-.08.23-.08s.11,0,.11-.06a1.71,1.71,0,0,0,0-.4v-.37c0-.25,0-.39.09-.39s.11,0,.22,0a1.25,1.25,0,0,0,.26,0,2,2,0,0,0,.51.06c.06,0,.09,0,.09.06s0,.22,0,.39a2.19,2.19,0,0,0,0,.4c0,.11,0,.17.08.17s.2,0,.34,0h.35s.08,0,.08.06a.62.62,0,0,1,0,.2v.68s0,0-.08,0h-.68s-.06.06-.06.15v.22a.9.9,0,0,1,0,.23c0,.2,0,.31,0,.37s.17.14.34.14a.75.75,0,0,0,.23,0,.62.62,0,0,1,.2,0c.06,0,.06,0,.06.06Z"/><path class="cls-3" d="M111.64,42.73v.37a1.46,1.46,0,0,0,0,.2v.2s0,0-.09,0l-.25,0a4.92,4.92,0,0,0-.88-.06,5.38,5.38,0,0,0-.62,0h-.63s-.06,0-.06-.06a1.08,1.08,0,0,0,0-.25c0-.2-.06-.29-.06-.32s.09-.08.23-.08a.78.78,0,0,0,.34-.11,6.15,6.15,0,0,0,.54-.57,1.47,1.47,0,0,0,.37-.65.46.46,0,0,0-.15-.32A.46.46,0,0,0,110,41a1.06,1.06,0,0,0-.42.09c-.09,0-.17.11-.29.17l-.14.08s-.08-.08-.08-.22a.47.47,0,0,0,0-.23.27.27,0,0,0,0-.14.31.31,0,0,1,0-.14s0-.06,0-.06a1.75,1.75,0,0,1,.6-.26,2.82,2.82,0,0,1,.65-.08,1.52,1.52,0,0,1,.85.23.84.84,0,0,1,.4.73c0,.43-.34.94-1,1.51.49,0,.83,0,1.11,0,.06,0,.06,0,.06.08Zm3.35-.85a1.81,1.81,0,0,1-.43,1.19,1.52,1.52,0,0,1-1.16.51,1.47,1.47,0,0,1-1.14-.51,1.8,1.8,0,0,1-.42-1.19,1.69,1.69,0,0,1,.42-1.16,1.47,1.47,0,0,1,1.14-.51,1.42,1.42,0,0,1,1.13.51,1.59,1.59,0,0,1,.46,1.16Zm-1,0a.78.78,0,0,0-.17-.48.52.52,0,0,0-.45-.2.53.53,0,0,0-.43.2.78.78,0,0,0-.17.48.72.72,0,0,0,.17.48.54.54,0,0,0,.43.23.52.52,0,0,0,.45-.23.78.78,0,0,0,.17-.48Zm3.86.85v.17c0,.09,0,.14,0,.2v.4s0,0-.08,0l-.26,0a4.92,4.92,0,0,0-.88-.06,5.12,5.12,0,0,0-.62,0h-.63s0,0,0-.06a1.85,1.85,0,0,1-.06-.25c0-.2-.06-.29-.06-.32s.06-.08.23-.08a.78.78,0,0,0,.34-.11,6.15,6.15,0,0,0,.54-.57,1.38,1.38,0,0,0,.37-.65.49.49,0,0,0-.14-.32.5.5,0,0,0-.34-.14,1.07,1.07,0,0,0-.43.09l-.28.17-.14.08c-.06,0-.09-.08-.09-.22a.47.47,0,0,0,0-.23.27.27,0,0,0,0-.14.31.31,0,0,1,0-.14s0-.06,0-.06a1.59,1.59,0,0,1,.6-.26,2.89,2.89,0,0,1,.65-.08,1.49,1.49,0,0,1,.85.23.84.84,0,0,1,.4.73,2.33,2.33,0,0,1-1,1.51c.48,0,.82,0,1.1,0,0,0,.06,0,.06.08Zm3.35-.85a1.76,1.76,0,0,1-.43,1.19,1.52,1.52,0,0,1-1.16.51,1.5,1.5,0,0,1-1.14-.51,1.8,1.8,0,0,1-.42-1.19,1.69,1.69,0,0,1,.42-1.16,1.5,1.5,0,0,1,1.14-.51,1.42,1.42,0,0,1,1.13.51,1.55,1.55,0,0,1,.46,1.16Zm-1,0a.71.71,0,0,0-.15-.48.52.52,0,0,0-.45-.2.53.53,0,0,0-.43.2.78.78,0,0,0-.17.48.72.72,0,0,0,.17.48.54.54,0,0,0,.43.23.56.56,0,0,0,.45-.23.71.71,0,0,0,.15-.48Z"/><path class="cls-9" d="M37.58,110.34l-5-.37-2.36,8.93-3-3.46,1.51-5.7-.77-.11-3.29,2.83L22,109.37l8.43-7.28,2.7,3.12-3.78,3.23,7,.45Zm8.29,5.58-5.79,9.5-3.52-2.13,5.82-9.52Zm15,6.44-.4,1-3.26-1.17-3.32,9.47-4.11-1.44L53,120.8l-3.31-1.16.36-1Zm13.48,8.13L76,131v.74a3,3,0,0,1-1.73,2.44,7.34,7.34,0,0,1-4.09.62c-4.2-.37-6.13-2.41-5.82-6.12a5.51,5.51,0,0,1,2.22-4.08,6.93,6.93,0,0,1,4.94-1.22c3.06.25,4.48,1.56,4.28,3.85l-1.82.48a4.14,4.14,0,0,0,.09-.76,2.19,2.19,0,0,0-2.3-2.66c-1.76-.15-2.81,1.5-3.12,5-.26,3,.6,4.56,2.58,4.76a3.07,3.07,0,0,0,2.13-.6,2.47,2.47,0,0,0,1-1.84,5.54,5.54,0,0,0,0-1.08ZM86,127.71,87.58,133l-4,1.13-3.12-10.69,3.95-1.13,1.24,4.31,3.27-1-1.25-4.3,3.94-1.14,3.12,10.69-3.94,1.13-1.56-5.3Zm18.33-14.62.63.93-4.2,2.87,1.9,2.77,3.55-2.38.62.91-3.55,2.41,2.47,3.66,4.94-3.35.62.91L103,127.49l-6.27-9.24Zm11.33-11.17,8.42,7.28-2,2.39-9.22-.15,5.33,4.62-.88,1-8.45-7.28,1.7-2,10,.09-5.76-5Z"/><path class="cls-10" d="M37.58,110.34l-5-.37-2.36,8.93-3-3.46,1.51-5.7-.77-.11-3.29,2.83L22,109.37l8.43-7.28,2.7,3.12-3.78,3.23,7,.45Zm8.29,5.58-5.79,9.5-3.52-2.13,5.82-9.52Zm15,6.44-.4,1-3.26-1.17-3.32,9.47-4.11-1.44L53,120.8l-3.31-1.16.36-1Zm13.48,8.13L76,131v.74a3,3,0,0,1-1.73,2.44,7.34,7.34,0,0,1-4.09.62c-4.2-.37-6.13-2.41-5.82-6.12a5.51,5.51,0,0,1,2.22-4.08,6.93,6.93,0,0,1,4.94-1.22c3.06.25,4.48,1.56,4.28,3.85l-1.82.48a4.14,4.14,0,0,0,.09-.76,2.19,2.19,0,0,0-2.3-2.66c-1.76-.15-2.81,1.5-3.12,5-.26,3,.6,4.56,2.58,4.76a3.07,3.07,0,0,0,2.13-.6,2.47,2.47,0,0,0,1-1.84,5.54,5.54,0,0,0,0-1.08ZM86,127.71,87.58,133l-4,1.13-3.12-10.69,3.95-1.13,1.24,4.31,3.27-1-1.25-4.3,3.94-1.14,3.12,10.69-3.94,1.13-1.56-5.3Zm18.33-14.62.63.93-4.2,2.87,1.9,2.77,3.55-2.38.62.91-3.55,2.41,2.47,3.66,4.94-3.35.62.91L103,127.49l-6.27-9.24Zm11.33-11.17,8.42,7.28-2,2.39-9.22-.15,5.33,4.62-.88,1-8.45-7.28,1.7-2,10,.09-5.76-5Z"/></g></g></svg>