<svg id="Layer_1" data-name="Layer 1" xmlns="http://www.w3.org/2000/svg" height="10" viewBox="0 0 250 250" width="10"><defs><style>.cls-1{stroke:#e41e26;stroke-width:24.01px;}.cls-1,.cls-10,.cls-7,.cls-8{stroke-miterlimit:10;}.cls-1,.cls-4,.cls-5,.cls-6,.cls-7,.cls-8{fill-rule:evenodd;}.cls-2,.cls-5,.cls-7{fill:#e41e26;}.cls-3,.cls-6,.cls-8{fill:#fff;}.cls-4,.cls-9{fill:#fcee18;}.cls-7,.cls-8{stroke:#000;stroke-width:0.51px;}.cls-10{fill:none;stroke:#231915;stroke-width:0.23px;}</style></defs><path class="cls-1" d="M306.39-199.5C635.48-199.5,902.25,67,902.25,395.78S635.48,991.05,306.39,991.05-289.47,724.54-289.47,395.78-22.69-199.5,306.39-199.5Z" transform="translate(301.47 211.5)"/><polygon class="cls-2" points="418.41 485.79 418.41 510.19 350.54 510.19 350.54 728.8 265.19 728.8 265.19 510.19 196.47 510.19 196.47 485.79 418.41 485.79"/><polygon class="cls-3" points="519.57 608.22 519.57 728.8 439.21 728.8 439.21 485.79 519.57 485.79 519.57 583.78 585.79 583.78 585.79 485.79 666.15 485.79 666.15 728.8 585.79 728.8 585.79 608.22 519.57 608.22"/><path class="cls-3" d="M538.3,274.28l77.23,243H534.61l-16.46-52.84H434.62L416.91,517.3H385.42l82.17-243ZM442.53,440.05h68.13L477.92,332.71Z" transform="translate(301.47 211.5)"/><rect class="cls-3" x="938.91" y="485.79" width="80.38" height="243.01"/><path class="cls-4" d="M76.19,606c-6.67,22.54,75.9,66.59,90.94,73.31A343.74,343.74,0,0,0,305,708.47c88,.31,163.66-29.4,224.83-86.83.49-.42,5.51-5.9,5.65-6.15,3-6.55,2.07-4.11-.28-9-7.52-7.35-36.61,21.57-59.33,29.42,5.39-22.28,16.68-49-5.11-62.62-23.21-14.45-45.6,6.46-54.17,21.6-19.38,34.27-37.51,78.44-84.1,81.24-85.41,5.11-160.09-14.51-229.52-58.48C94,612,86.12,602.34,76.19,606Z" transform="translate(301.47 211.5)"/><path class="cls-5" d="M392.25,666.12c23.41-3.52,20.83-1.93,30.73-19.76,4.8-8.65,10.16-27.5,17.34-32.4,18.87.93-1.36,30-5.65,40.19,7.83-2.49,15.58-3.91,19.47-10.51,2.24-3.83,6.78-17.55,8.77-23.13,5.78-16.59,6.24-47.91-19.75-31-10.16,6.64-25.94,39.6-37.17,56.81-4.94,7.6-9.08,11.48-13.74,19.79Z" transform="translate(301.47 211.5)"/><path class="cls-6" d="M532.54,571.35c-8.35,6.61-.83,25.69,10,35.32,5.5,4.94,26.89,16.73,36,7.12,13.14-13.92-15.29-15.85-22.81-20.24-17.31-10.12-14.39-29.17-23.15-22.2Z" transform="translate(301.47 211.5)"/><path class="cls-6" d="M33.57,615.46c38.19,8.53,58.26-36.31,46.05-44.3-10-6.52-6.12,13-23.4,22.45-12.74,7-32.55,2.46-22.65,21.85Z" transform="translate(301.47 211.5)"/><path class="cls-7" d="M458.34,20.07c1.67.74,3.29,3.06,4.59,4.45,1.59,1.65,2.81,2.87,4.46,4.62l18.19,18.94c1.3,1.33,5.84,4.39,3.34,7.34s-6.21-1.76-7.4-2.92L462.85,34.7c-1.93-1.56-3.58-3.46-5.34-5.13-1-.91-1.64-1.56-2.66-2.47a12.09,12.09,0,0,1-1.36-1.22l-.77-1.22c-.85-.42-.34-.05-1.22-.82-.37-.31-.57-.56-.94-.9C449,21.35,438.48,11.77,438.28,11c-1.22-.57-1.76-1-3.38-1l.4,2.69,30.87,35a3.47,3.47,0,0,1,.4.6s.08.25.08.22.06.15.09.2c1.36.71.65-.05,1.27,1.39.46.2.14,0,.77.51,1,.88,4.26,4.25,4.51,5.16,1.14.6,1,.71,2.07,1.81.46.49,1.19,1.2,1.82,1.82,5.67,5.72.31,7.45-1.53,6.72-1.45-.6-15.95-15.74-17.48-17.41l-20.86-21c-2.47-2.35-5.73-6.06-7.86-5.92-1,2.81,1.53,4.76,2.92,6.43.8,1,1.54,1.82,2.33,2.84s1.65,1.67,1.9,2.69c1.31.8,1.82,1.73,3,3.06.91,1,1.68,2,2.7,3.15l16.31,18.17a189.28,189.28,0,0,0,17.51,17l6.3,5.3c.91.14,5.47,3.15,8.31,3.94,10.78,3,13.05-4.59,20.2,1.45,2.19,1.87,4.4,3.65,6.62,5.47,4.68,3.91,8.68,7.54,13.11,11.48,2.24,2,4.31,4,6.46,6l5.93,5.92c2.16,1.08,12.46,11.77,13,12.73,1,.42,4.91,4.56,5.76,5.44,1.9,2,3.49,3.66,5.36,5.67,10,10.6,17.37,19.19,26.73,29.37,1.48,1.61,4.15,4.39,5.14,6.23.65.23.34.09,1,.85,3,3.83,6.73,11.4,11,17.58.85,1.19,1.19,1.42,1.39,2.49,1,.68.85.74,1.59,1.87,4.88,7.77.48,6.78,8.34,13.3,2.56,2.12,4.37,3.06,6.36,6.12a31.16,31.16,0,0,1,3.38,9.13,48.62,48.62,0,0,1,2.49,6.41l2.22,3.11c1,.32,2.15,1.79,3.34,2.53,1.37.85,3.38,1.36,4.15,1.81,10.1.94,13.22-1.22,21.39-2.89.43-.43,1.53-.91,2.24-1.53s1.17-1.76,1.82-2.13c1.73-7.82,3.8-10.63,3.32-20.15l.17-.91c-1.14-1.56-.74-3.23-3.29-6.52-2.24-2.92-3.83-2.92-5-4.34l-11-3.79c-.6-.23-1.22-.49-1.79-.77l-1.13-.85c-3.78-1.25-5.57-4.73-8.15-7.82-4.79-5.79-6.15-3.43-9.76-5.67-6.3-3.94-12.26-8.19-18.78-12-4.43-2.61-5.88-3.26-9.34-6.44L580.21,142l-15.58-15.59c-5-5.33-10.33-10.06-15.38-15.42C538.86,99.84,529.76,91.25,520,78.72c-.73-.74-1.07-1-1.24-2-4.15-2.87-.34-8.68-.46-15.88A18.79,18.79,0,0,0,516.82,55l-2-3.89c-.57-1.1-.31-.34-.42-1.22l-1.51-1.61c-5.45-7.57-14.41-16.59-21.34-22.68L467.5,4.17c-.65-.68-.22-.14-.74-1L464,1.11c-3-2.44-6.3-6.18-8.79-5-.43,2.19.91,2.78,2,4.08L491,33.85c1.05.85,2.67,1.53,3.64,2.58,1.33,1.44,5.13,5.5,4.88,7.54a2.91,2.91,0,0,1-3.18,2.46C495,46.24,485,36.63,483.28,35,472.75,25.17,461.69,15.62,450.7,6.3,448,4,445.37,1.05,443.55,1.65a2.24,2.24,0,0,0,0,1.84c.32.91,2.3,2.81,2.87,3.43C449,9.81,457.51,18.4,458.34,20.07Z" transform="translate(301.47 211.5)"/><path class="cls-8" d="M606.62,66.76c1.08,8.36,4.31,14.09-7.55,23.19-2.49,1.9-4.88,2.52-7.32,4l.49,3.94L582.16,108l-11.83,11.85c-1.3,1.33-3,2.58-4,4.05a19.24,19.24,0,0,0,4.77,4.71c1.59-.91,4.85-4.48,6.38-6,1-1,5.34-5.73,6.47-6.18a3.78,3.78,0,0,1,2-2c.39-1.08,8.68-9.19,9.76-10.26,2.35-2.24,2.63-.66,5.5-.8,1.14-2,2-4.28,3.21-6.23,5.56-8.62,15.32-11.71,18.41-9.36l5.79.77,7.69,0,4.26-.42c1-.88,3.54-1.08,5.07-1.59s2.93-1.1,4.46-1.78c3.15-1.39,5.84-3.43,8.31-4.48.34-.68,5.17-4.06,6.3-5.11a79.3,79.3,0,0,0,6-5.75l10.13-12.76c.82-2.26,3.32-5.44,4.74-7.93L690.1,41c.06-1.3,1.93-5,2.58-6.74.8-2.07,1.53-5.39,2.21-7.12.83-5.67,2.27-11,.49-16.72a17.25,17.25,0,0,0-3.49-6c-2.56-2.78-4-2.75-5.34-4.09-3.49.12-10-5.13-30.22,4.23-16.4,7.6-31.55,18.23-41.62,32.82-5.79,8.39-8.66,16.5-8.09,29.4Zm4.85-3.09c.68-1.42.91-5.93,4.26-12.84a46,46,0,0,1,6.89-10.32c11.75-13.92,38.31-30.19,57.12-29.59,5.28.17,7.52,1.9,9.71,5.78l1,1.39c.28-12.56-13.36-13.47-24.12-10.52a89,89,0,0,0-25.51,11.91,87.77,87.77,0,0,0-19.26,17.74,47.4,47.4,0,0,0-7.07,11.68c-1,2.16-4.23,12.5-3,14.77Z" transform="translate(301.47 211.5)"/><path class="cls-8" d="M547.74,142.16c-.7,1.5-4.36,4.62-5.87,6.1-2.1,2.12-3.89,4-6,6.12-4.2,4.16-7.94,8-12.2,12.24-3.49,3-6.52,7.18-10.18,10.12-2.53,2-4.63,1.53-8.32,2-1.93.23-7.26.51-8.2,1.64-2.61.91-7.43,5.56-9.56,7.37-3,2.58-5.87,4.91-9,7.52-2.27,1.89-16.8,14.34-18,14.76-.77,1.28,0,.63-1.45,1.19-.71,1.42-2.13,1.76-3,3.77a15.1,15.1,0,0,0-.54,6.16,15.79,15.79,0,0,0,3.89,9.35c4.91,5.75,9.56,9.69,17.85,9.07,4.28-.31,6.07-3.09,8-5.67l18.05-21.71a3.73,3.73,0,0,1,2.07-2.33c1.16-3.14,7.18-6.69,9.42-11.68s.59-13.43,3.94-17l19.92-19.71c.77-.76.54-.68,1.33-1a3.83,3.83,0,0,1,2.05-2c.39-1,3-3.37,4-4.28.77-.76.54-.68,1.33-1a3.82,3.82,0,0,1,2-2c.39-1.11,5.47-5.81,6.35-6.69,1.85-1.84,4.94-4.51,6.47-6.52a17.05,17.05,0,0,0-4.68-4.93Z" transform="translate(301.47 211.5)"/><path class="cls-3" d="M-8.9,36.85v97.23q0,57.24-40.21,57.21c-11.86,0-21.91-3.35-30.19-10.12s-12.34-15-12.34-24.64c0-5.72,1.16-13,3.49-21.82l16-4.28c-2.41,10.48-3.63,18-3.63,22.7q0,24.57,14.67,24.58,8.43,0,8.45-23.08V36.85Zm139,0V138.28q0,52.13-57.69,52.1-57.45,0-57.46-52.1V36.85H58.63V139.58c0,13.3,1.9,22.34,5.7,27.21s10.87,7.29,21.14,7.29q29.84,0,29.82-35.8V36.85ZM252.48,79.23,232.11,83a49.14,49.14,0,0,0,1.28-10.2q0-26.44-31.93-26.42-25.19,0-25.19,18.14,0,13.56,28.2,23.33,54.32,18.66,54.31,55.33,0,21.44-15.27,34.44t-40.6,13q-56.1,0-56.1-43.39a79.35,79.35,0,0,1,.63-8.71l21.14-4.64a66.91,66.91,0,0,0-2.5,16.66q0,28.11,32.23,28.09c17.17,0,25.8-6.77,25.8-20.24q0-15-30.87-26.44-44.61-16.38-44.61-52.3,0-20.41,14.87-32.8t39.16-12.47q49.79,0,49.82,44.87Zm131.6-42.38V52H347.14V187.88H300.69V52h-37.4V36.85Z" transform="translate(301.47 211.5)"/><path class="cls-3" d="M485.69,137.85c0,1.79-.57,2.81-1.73,3.06-.2,0-2,.2-5.51.54-2.1.23-5.22.51-9.36.82a3.84,3.84,0,0,0,2.27,2.67,7.71,7.71,0,0,0,3.49.74,10,10,0,0,0,4.74-1.25c.68-.4,1.36-.82,2-1.25a7.81,7.81,0,0,1,1.91,2.69,10,10,0,0,1,1.3,3.09,1.13,1.13,0,0,1-.4.63c-2.15,2.29-5.5,3.46-10.07,3.46a14.17,14.17,0,0,1-10.19-3.72,13,13,0,0,1-4-10,14.25,14.25,0,0,1,3.58-10,12.48,12.48,0,0,1,9.73-4,11.5,11.5,0,0,1,8.65,3.72,12.24,12.24,0,0,1,3.58,8.84Zm-9.31-1.61a4.12,4.12,0,0,0-1.16-2.9,3.62,3.62,0,0,0-2.78-1.24,3.35,3.35,0,0,0-2.78,1.39,4.67,4.67,0,0,0-1,3c0,.48.22.71.73.71a50.12,50.12,0,0,0,6.1-.54c.6-.08.88-.23.88-.42Zm27.78-5.45a1.26,1.26,0,0,1-.4.71,7,7,0,0,0-1.5-.17,4.81,4.81,0,0,0-2.61.68,2.52,2.52,0,0,0-1.28,2.24,3.86,3.86,0,0,0,1.37,2.35,25.45,25.45,0,0,1,2.52,2.92,7.75,7.75,0,0,1,1.33,4.34,9.11,9.11,0,0,1-.51,2.86,5.6,5.6,0,0,1-1.53,2.44A17.67,17.67,0,0,1,497,152a13.1,13.1,0,0,1-5.22,1.21c-.34,0-1.13-1-2.38-2.86s-1.87-3.12-1.87-3.54c0-.14.11-.26.31-.29l3.75-.68c1.53-.51,2.32-1.3,2.32-2.43a4.35,4.35,0,0,0-1.36-2.72c-1.62-1.79-2.44-2.75-2.53-2.87a7,7,0,0,1-1.33-4c0-2.67,1.33-4.91,4-6.78a13.49,13.49,0,0,1,7.72-2.46c.28,0,1,1,2.1,2.86a14.59,14.59,0,0,1,1.67,3.34Zm21.59,13.72a19.36,19.36,0,0,1-.19,2.41c-.12,1.08-.2,1.87-.2,2.38a1.87,1.87,0,0,1-.14,1,3.89,3.89,0,0,1-.88.62,15.65,15.65,0,0,1-7.61,1.87c-5.11,0-7.66-1.95-7.69-5.87,0-1.16.06-2.92.14-5.27s.15-4.08.15-5.27c0-.77-.46-1.16-1.37-1.16h-.34a1.91,1.91,0,0,1-.37,0c-.65,0-1-.26-1-.71,0-.29,0-.74.06-1.31a12,12,0,0,0,.06-1.3c0-.37,0-1-.06-1.7s-.06-1.33-.06-1.7.57-.57,1.7-.6c.63,0,1-.2,1-.54a16.58,16.58,0,0,0,.11-3.17c-.06-2.3-.11-3.37-.11-3.26,0-2.07.19-3.09.59-3.09a10.32,10.32,0,0,1,2.07.31,19.22,19.22,0,0,0,2.1.4c.91.11,2.3.28,4.15.48.42,0,.65.2.65.45,0,.71-.06,1.79-.17,3.24s-.17,2.49-.17,3.23.25,1.3.76,1.3,1.54,0,2.78-.08,2.19-.09,2.84-.09c.37,0,.57.14.57.4,0,.42-.06,1-.11,1.84a12.7,12.7,0,0,0-.15,1.84c0,.43,0,1.05,0,1.84s0,1.45,0,1.88-.26.56-.77.56-1,0-1.78-.05-1.42,0-1.76,0h-2c-.28,0-.4.39-.4,1.16v1.9c0,.85,0,1.47,0,1.9a6.69,6.69,0,0,0,.48,3.09,3.08,3.08,0,0,0,2.81,1.13,7.17,7.17,0,0,0,1.9-.31,8.26,8.26,0,0,1,1.74-.28c.36,0,.53.17.53.56Z" transform="translate(301.47 211.5)"/><path class="cls-3" d="M625.24,145.42c0,.31-.06.82-.12,1.5a13,13,0,0,0-.11,1.53c0,.34,0,.88,0,1.62s0,1.3,0,1.67-.23.54-.71.54a14,14,0,0,1-2.07-.4,47.74,47.74,0,0,0-7.46-.39c-1.14,0-2.84,0-5.08.17s-3.94.2-5,.2a.57.57,0,0,1-.63-.57c-.05-.48-.17-1.22-.34-2.18a25.45,25.45,0,0,1-.56-2.58c0-.32.62-.57,1.84-.71a6.63,6.63,0,0,0,2.78-.8,35.9,35.9,0,0,0,4.57-4.73c2-2.38,3-4.2,3-5.39a3.45,3.45,0,0,0-1.13-2.63,3.76,3.76,0,0,0-2.7-1.05,9.07,9.07,0,0,0-3.49.71,13.38,13.38,0,0,0-2.44,1.24,6.34,6.34,0,0,1-1.19.69c-.48,0-.74-.57-.74-1.73a11.84,11.84,0,0,0-.11-2,8.89,8.89,0,0,0-.34-1.19,4,4,0,0,1-.26-1.13c0-.2.11-.37.37-.57a14.81,14.81,0,0,1,4.88-2,23,23,0,0,1,5.31-.65,12.55,12.55,0,0,1,7,1.84,6.92,6.92,0,0,1,3.32,6.12q0,5.32-8,12.36c3.8-.2,6.78-.28,8.93-.28.46,0,.69.28.69.82Zm27.6-7a13.92,13.92,0,0,1-3.66,9.69,12.57,12.57,0,0,1-18.81,0,14.58,14.58,0,0,1,0-19.39,12.68,12.68,0,0,1,18.78,0,13.75,13.75,0,0,1,3.69,9.7Zm-8.14,0a6.1,6.1,0,0,0-1.31-3.94,4.41,4.41,0,0,0-3.63-1.79,4.51,4.51,0,0,0-3.66,1.76,6.23,6.23,0,0,0-1.27,4,6.47,6.47,0,0,0,1.27,4,4.43,4.43,0,0,0,3.66,1.81,4.39,4.39,0,0,0,3.61-1.87,6.09,6.09,0,0,0,1.33-3.91Zm32.12,7a13.81,13.81,0,0,1-.11,1.5c-.06.65-.09,1.17-.09,1.53s0,.88,0,1.62,0,1.3,0,1.67-.25.54-.73.54a14.76,14.76,0,0,1-2.07-.4,47.45,47.45,0,0,0-7.47-.39c-1.13,0-2.81,0-5.08.17s-3.91.2-5,.2a.59.59,0,0,1-.65-.57,16.78,16.78,0,0,0-.34-2.18,20.25,20.25,0,0,1-.54-2.58c0-.32.6-.57,1.84-.71a6.56,6.56,0,0,0,2.76-.8,34.64,34.64,0,0,0,4.56-4.73c2-2.38,3-4.2,3-5.39a3.52,3.52,0,0,0-1.13-2.63,3.81,3.81,0,0,0-2.7-1.05,8.89,8.89,0,0,0-3.49.71,12.21,12.21,0,0,0-2.44,1.24,8.22,8.22,0,0,1-1.19.69c-.51,0-.76-.57-.76-1.73a10.62,10.62,0,0,0-.12-2c0-.2-.14-.59-.31-1.19a3.33,3.33,0,0,1-.28-1.13c0-.2.14-.37.36-.57a14.78,14.78,0,0,1,4.89-2,23.25,23.25,0,0,1,5.3-.65,12.63,12.63,0,0,1,7,1.84,6.92,6.92,0,0,1,3.32,6.12c0,3.55-2.7,7.66-8.06,12.36,3.83-.2,6.81-.28,9-.28.45,0,.65.28.65.82Zm27.64-7a13.92,13.92,0,0,1-3.66,9.69,12.6,12.6,0,0,1-18.84,0,14.58,14.58,0,0,1,0-19.39,12.71,12.71,0,0,1,18.81,0,13.75,13.75,0,0,1,3.69,9.7Zm-8.15,0a6.11,6.11,0,0,0-1.33-3.94,4.6,4.6,0,0,0-7.26,0,6.09,6.09,0,0,0-1.31,4,6.32,6.32,0,0,0,1.31,4,4.37,4.37,0,0,0,3.66,1.81,4.42,4.42,0,0,0,3.6-1.87,6.21,6.21,0,0,0,1.33-3.91Z" transform="translate(301.47 211.5)"/><path class="cls-9" d="M13.09,704.3l-41.23-3.09-19.47,73.84-24.77-28.68,12.57-47.14-6.47-.91-27.26,23.53-22.22-25.69L-46,636l22.22,25.71-31.13,26.84,57.51,3.71Zm68.61,46-48,78.66-29-17.66,48-78.66Zm123.45,53.23-3.06,8.73L175,802.75l-27.5,78.18L113.47,869,141,790.81l-27.41-9.64,3.09-8.73Zm111.71,67.3,14.19,4.25a50.94,50.94,0,0,1-.09,6.06q-1.18,13.36-14.21,20.27t-33.82,5.05q-52.06-4.59-48-50.46,1.91-21.72,18.3-33.93t40.69-10q37.92,3.36,35.41,32l-15,3.94c.45-2.66.74-4.76.88-6.24q1.79-20.28-19-22.13-22-1.92-25.82,41.13-3.28,37,21.3,39.17c6.79.6,12.57-1,17.45-4.82a20.78,20.78,0,0,0,8.15-15.16,50,50,0,0,0-.43-9.07Zm96.9-23,12.83,43.88L394,901.22l-25.84-88.44,32.63-9.49,10.41,35.65,26.87-7.82-10.41-35.66,32.6-9.52,25.85,88.44-32.63,9.49L440.63,840ZM565.54,727l5.19,7.69L535.91,758.3l15.67,23.07,29.31-19.84,5.19,7.68L556.8,789.06l20.45,30.16,40.81-27.64,5.19,7.68-68.89,46.66L502.6,769.67Zm93.52-92.49,69.83,60.21-17,19.7-76.13-1.05,44.15,38.07-7.49,8.64-69.8-60.2,14.1-16.3,82.63.76L651.6,643.21Z" transform="translate(301.47 211.5)"/><path class="cls-10" d="M13.09,704.3l-41.23-3.09-19.47,73.84-24.77-28.68,12.57-47.14-6.47-.91-27.26,23.53-22.22-25.69L-46,636l22.22,25.71-31.13,26.84,57.51,3.71Zm68.61,46-48,78.66-29-17.66,48-78.66Zm123.45,53.23-3.06,8.73L175,802.75l-27.5,78.18L113.47,869,141,790.81l-27.41-9.64,3.09-8.73Zm111.71,67.3,14.19,4.25a50.94,50.94,0,0,1-.09,6.06q-1.18,13.36-14.21,20.27t-33.82,5.05q-52.06-4.59-48-50.46,1.91-21.72,18.3-33.93t40.69-10q37.92,3.36,35.41,32l-15,3.94c.45-2.66.74-4.76.88-6.24q1.79-20.28-19-22.13-22-1.92-25.82,41.13-3.28,37,21.3,39.17c6.79.6,12.57-1,17.45-4.82a20.78,20.78,0,0,0,8.15-15.16,50,50,0,0,0-.43-9.07Zm96.9-23,12.83,43.88L394,901.22l-25.84-88.44,32.63-9.49,10.41,35.65,26.87-7.82-10.41-35.66,32.6-9.52,25.85,88.44-32.63,9.49L440.63,840ZM565.54,727l5.19,7.69L535.91,758.3l15.67,23.07,29.31-19.84,5.19,7.68L556.8,789.06l20.45,30.16,40.81-27.64,5.19,7.68-68.89,46.66L502.6,769.67Zm93.52-92.49,69.83,60.21-17,19.7-76.13-1.05,44.15,38.07-7.49,8.64-69.8-60.2,14.1-16.3,82.63.76L651.6,643.21Z" transform="translate(301.47 211.5)"/></svg>