<?xml version="1.0" encoding="UTF-8"?>
<!DOCTYPE svg PUBLIC "-//W3C//DTD SVG 1.1//EN" "http://www.w3.org/Graphics/SVG/1.1/DTD/svg11.dtd">
<!-- Creator: CorelDRAW 2020 (64-Bit) -->
<svg xmlns="http://www.w3.org/2000/svg" xml:space="preserve" width="2.02778in" height="2.02778in" version="1.1" style="shape-rendering:geometricPrecision; text-rendering:geometricPrecision; image-rendering:optimizeQuality; fill-rule:evenodd; clip-rule:evenodd"
viewBox="0 0 1099.18 1099.18"
 xmlns:xlink="http://www.w3.org/1999/xlink"
 xmlns:xodm="http://www.corel.com/coreldraw/odm/2003">
 <defs>
  <style type="text/css">
   <![CDATA[
    .str0 {stroke:#E62129;stroke-width:15.06;stroke-miterlimit:2.61313}
    .str1 {stroke:black;stroke-width:3.76;stroke-miterlimit:22.9256}
    .str2 {stroke:#332C2B;stroke-width:1.63;stroke-miterlimit:2.61313}
    .fil7 {fill:none;fill-rule:nonzero}
    .fil5 {fill:#FEFEFE}
    .fil3 {fill:#FFF000}
    .fil4 {fill:#E62129}
    .fil0 {fill:#1D1819}
    .fil2 {fill:#FEFEFE;fill-rule:nonzero}
    .fil6 {fill:#FFF000;fill-rule:nonzero}
    .fil1 {fill:#E62129;fill-rule:nonzero}
   ]]>
  </style>
 </defs>
 <g id="Layer_x0020_1">
  <metadata id="CorelCorpID_0Corel-Layer"/>
  <path class="fil0 str0" d="M549.59 7.53c299.37,0 542.06,242.69 542.06,542.06 0,299.37 -242.69,542.06 -542.06,542.06 -299.37,0 -542.06,-242.69 -542.06,-542.06 0,-299.37 242.69,-542.06 542.06,-542.06z"/>
  <polygon class="fil1" points="377.22,438.95 377.22,461.18 315.48,461.18 315.48,660.23 237.83,660.23 237.83,461.18 175.33,461.18 175.33,438.95 "/>
  <polygon class="fil2" points="469.26,550.42 469.26,660.23 396.15,660.23 396.15,438.95 469.26,438.95 469.26,528.19 529.48,528.19 529.48,438.95 602.59,438.95 602.59,660.23 529.48,660.23 529.48,550.42 "/>
  <path class="fil2" d="M760.53 438.95l70.26 221.28 -73.61 0 -14.96 -48.1 -76.01 0 -16.1 48.1 -28.66 0 74.74 -221.28 64.33 0zm-87.12 150.95l61.99 0 -29.8 -97.75 -32.2 97.75z"/>
  <polygon class="fil2" points="923.85,438.95 923.85,660.23 850.74,660.23 850.74,438.95 "/>
  <path class="fil3" d="M340.15 741.01c-6.06,20.5 69.06,60.64 82.75,66.74 36.63,16.32 79.62,26.42 125.37,26.57 80.06,0.27 148.89,-26.76 204.55,-79.06 0.43,-0.41 5.01,-5.38 5.12,-5.62 2.73,-5.95 1.9,-3.72 -0.26,-8.19 -6.82,-6.71 -33.28,19.65 -53.97,26.77 4.91,-20.29 15.19,-44.63 -4.64,-57 -21.13,-13.18 -41.49,5.88 -49.27,19.65 -17.64,31.22 -34.12,71.44 -76.51,73.98 -77.71,4.66 -145.64,-13.22 -208.81,-53.24 -8.12,-5.15 -15.26,-13.95 -24.32,-10.61z"/>
  <path class="fil4" d="M627.68 795.75c21.3,-3.19 18.96,-1.76 27.95,-17.98 4.37,-7.87 9.26,-25.05 15.78,-29.53 17.18,0.85 -1.24,27.37 -5.12,36.62 7.1,-2.28 14.15,-3.56 17.69,-9.58 2.05,-3.49 6.19,-15.98 7.98,-21.08 5.29,-15.1 5.68,-43.62 -17.94,-28.2 -9.24,6.04 -23.61,36.05 -33.82,51.73 -4.51,6.92 -8.25,10.45 -12.51,18.01z"/>
  <path class="fil5" d="M755.29 709.46c-7.59,6.03 -0.73,23.4 9.06,32.17 5.02,4.49 24.48,15.23 32.77,6.46 11.96,-12.65 -13.92,-14.41 -20.75,-18.41 -15.76,-9.22 -13.1,-26.56 -21.08,-20.22z"/>
  <path class="fil5" d="M301.39 749.62c34.74,7.76 53,-33.07 41.89,-40.33 -9.11,-5.95 -5.58,11.86 -21.3,20.44 -11.59,6.33 -29.61,2.23 -20.6,19.89z"/>
  <path class="fil4 str1" d="M687.8 207.46c1.53,0.69 2.99,2.78 4.19,4.04 1.43,1.51 2.55,2.63 4.04,4.21l16.56 17.25c1.17,1.22 5.3,4.01 3.03,6.68 -2.38,2.79 -5.64,-1.59 -6.73,-2.64l-17 -16.21c-1.75,-1.43 -3.23,-3.15 -4.84,-4.67 -0.88,-0.84 -1.5,-1.43 -2.43,-2.25 -0.46,-0.4 -0.83,-0.69 -1.24,-1.11l-0.7 -1.11c-0.77,-0.4 -0.31,-0.07 -1.11,-0.76 -0.32,-0.27 -0.51,-0.51 -0.83,-0.83 -1.47,-1.44 -11.01,-10.16 -11.19,-10.83 -1.11,-0.53 -1.58,-0.97 -3.08,-0.92l0.38 2.46 28.07 31.83c0.37,0.45 0.17,0.22 0.36,0.54 0.02,0.03 0.07,0.24 0.08,0.19 0.01,-0.04 0.06,0.13 0.07,0.2 1.23,0.65 0.59,-0.05 1.16,1.25 0.42,0.18 0.14,-0.01 0.69,0.47 0.9,0.8 3.87,3.89 4.12,4.69 1.03,0.54 0.93,0.66 1.87,1.66 0.42,0.45 1.09,1.08 1.66,1.67 5.14,5.21 0.28,6.77 -1.39,6.09 -1.33,-0.54 -14.51,-14.32 -15.92,-15.83l-18.96 -19.1c-2.25,-2.13 -5.22,-5.5 -7.16,-5.39 -0.94,2.56 1.4,4.35 2.66,5.88 0.71,0.86 1.37,1.65 2.11,2.56 0.74,0.91 1.49,1.52 1.72,2.46 1.18,0.73 1.65,1.57 2.71,2.78 0.83,0.95 1.52,1.78 2.46,2.88l14.84 16.54c5.56,6.02 9.81,10.18 15.91,15.46l5.74 4.83c0.83,0.14 4.99,2.87 7.57,3.59 9.79,2.72 11.87,-4.2 18.36,1.32 1.99,1.69 4.02,3.32 6.03,4.99 4.26,3.54 7.89,6.85 11.91,10.45 2.06,1.84 3.93,3.63 5.89,5.46l5.4 5.4c1.94,0.98 11.31,10.7 11.79,11.59 0.96,0.38 4.47,4.15 5.24,4.96 1.72,1.79 3.16,3.33 4.87,5.15 9.12,9.66 15.79,17.47 24.31,26.76 1.35,1.47 3.78,4 4.68,5.67 0.58,0.19 0.31,0.09 0.86,0.78 2.76,3.49 6.13,10.37 10.05,16 0.76,1.09 1.08,1.28 1.27,2.28 0.9,0.61 0.78,0.66 1.44,1.71 4.45,7.07 0.45,6.15 7.59,12.1 2.33,1.94 3.97,2.78 5.77,5.58 1.34,2.08 2.48,5.41 3.08,8.29 0.33,0.45 2.23,5.28 2.28,5.85l2.01 2.83c0.88,0.29 1.97,1.63 3.06,2.31 1.24,0.76 3.06,1.24 3.77,1.65 9.19,0.86 12.01,-1.1 19.45,-2.64 0.4,-0.37 1.4,-0.82 2.05,-1.4 0.63,-0.56 1.05,-1.6 1.66,-1.92 1.57,-7.14 3.44,-9.68 3,-18.36l0.16 -0.83c-1.05,-1.42 -0.67,-2.94 -2.99,-5.94 -2.05,-2.66 -3.49,-2.65 -4.6,-3.94l-10.04 -3.47c-0.55,-0.22 -1.11,-0.44 -1.62,-0.71l-1.03 -0.75c-3.43,-1.14 -5.06,-4.33 -7.41,-7.15 -4.38,-5.25 -5.61,-3.11 -8.87,-5.14 -5.74,-3.59 -11.15,-7.47 -17.09,-10.96 -4.02,-2.36 -5.34,-2.97 -8.49,-5.85l-22.43 -19.64 -14.17 -14.2c-4.56,-4.86 -9.41,-9.17 -13.99,-14.06 -9.45,-10.1 -17.73,-17.92 -26.62,-29.33 -0.67,-0.68 -0.97,-0.88 -1.13,-1.78 -3.76,-2.62 -0.31,-7.89 -0.41,-14.46 -0.2,-2.13 -0.64,-3.62 -1.35,-5.37l-1.82 -3.53c-0.51,-1.01 -0.27,-0.32 -0.39,-1.12l-1.35 -1.48c-4.97,-6.88 -13.13,-15.09 -19.42,-20.64l-21.88 -19.52c-0.6,-0.63 -0.23,-0.12 -0.67,-0.87l-2.54 -1.92c-2.69,-2.21 -5.75,-5.63 -8,-4.6 -0.39,2.01 0.82,2.54 1.85,3.73l30.75 30.68c0.96,0.77 2.42,1.39 3.31,2.36 1.2,1.31 4.67,5.01 4.43,6.86 -0.17,1.27 -1.42,2.45 -2.89,2.24 -1.27,-0.17 -10.32,-8.93 -11.9,-10.41 -9.57,-8.95 -19.65,-17.64 -29.62,-26.13 -2.45,-2.08 -4.86,-4.78 -6.52,-4.24 -0.13,0.38 -0.32,0.77 -0,1.68 0.29,0.81 2.11,2.54 2.61,3.12 2.3,2.64 10.08,10.45 10.84,11.97z"/>
  <path class="fil5 str1" d="M822.71 249.97c0.98,7.62 3.91,12.83 -6.88,21.11 -2.26,1.74 -4.45,2.31 -6.67,3.66l0.45 3.59 -9.17 9.24 -10.76 10.78c-1.21,1.21 -2.76,2.35 -3.65,3.7 0.81,1.41 3,3.33 4.35,4.27 1.45,-0.82 4.42,-4.08 5.81,-5.47 0.9,-0.9 4.85,-5.2 5.89,-5.62 0.54,-1.03 0.8,-1.3 1.83,-1.84 0.36,-0.98 7.88,-8.37 8.88,-9.32 2.14,-2.06 2.39,-0.61 5,-0.73 1.05,-1.83 1.78,-3.9 2.93,-5.68 5.04,-7.85 13.94,-10.67 16.74,-8.52l5.28 0.71 6.99 0.04 3.88 -0.38c0.92,-0.8 3.22,-0.98 4.61,-1.45 1.45,-0.49 2.65,-1.02 4.05,-1.63 2.86,-1.26 5.32,-3.13 7.57,-4.08 0.31,-0.62 4.7,-3.7 5.72,-4.64 1.93,-1.76 3.7,-3.31 5.44,-5.24l9.22 -11.62c0.76,-2.08 3.02,-4.96 4.32,-7.22l4.11 -7.12c0.03,-1.21 1.74,-4.57 2.33,-6.15 0.72,-1.9 1.39,-4.93 2.01,-6.5 0.77,-5.15 2.08,-10.01 0.45,-15.22 -0.61,-1.96 -1.93,-4.1 -3.18,-5.46 -2.31,-2.52 -3.62,-2.49 -4.86,-3.72 -3.16,0.12 -9.12,-4.67 -27.47,3.84 -14.92,6.92 -28.7,16.61 -37.87,29.91 -5.28,7.64 -7.87,15.01 -7.34,26.76zm4.4 -2.81c0.63,-1.28 0.83,-5.4 3.87,-11.69 1.87,-3.87 3.95,-6.67 6.27,-9.41 10.7,-12.65 34.85,-27.48 51.96,-26.93 4.8,0.16 6.86,1.72 8.83,5.26l0.91 1.27c0.27,-11.45 -12.15,-12.27 -21.93,-9.59 -8.21,2.25 -17.28,6.67 -23.21,10.84 -7.76,5.45 -12.26,9.76 -17.54,16.17 -2.57,3.11 -4.56,6.42 -6.42,10.63 -0.87,1.97 -3.85,11.4 -2.74,13.46z"/>
  <path class="fil5 str1" d="M769.13 318.63c-0.64,1.38 -3.97,4.2 -5.33,5.57 -1.92,1.92 -3.54,3.63 -5.47,5.55 -3.8,3.8 -7.22,7.3 -11.1,11.15 -3.16,2.74 -5.93,6.54 -9.25,9.22 -2.31,1.87 -4.2,1.4 -7.56,1.79 -1.76,0.2 -6.6,0.45 -7.47,1.5 -2.38,0.8 -6.76,5.05 -8.7,6.69 -2.76,2.35 -5.33,4.46 -8.17,6.85 -2.07,1.73 -15.29,13.06 -16.39,13.44 -0.7,1.15 -0.02,0.57 -1.31,1.09 -0.65,1.28 -1.94,1.61 -2.71,3.44 -0.62,1.49 -0.63,3.74 -0.5,5.59 0.27,3.69 1.7,6.37 3.54,8.53 4.47,5.24 8.69,8.83 16.24,8.26 3.89,-0.29 5.51,-2.83 7.28,-5.18l16.42 -19.77c0.44,-1.05 0.74,-1.52 1.87,-2.11 1.07,-2.86 6.55,-6.11 8.57,-10.65 2.03,-4.55 0.55,-12.23 3.59,-15.46l18.12 -17.95c0.7,-0.69 0.49,-0.62 1.22,-0.92 0.54,-1.04 0.81,-1.31 1.85,-1.85 0.38,-0.9 2.77,-3.09 3.61,-3.91 0.7,-0.69 0.49,-0.62 1.22,-0.92 0.54,-1.02 0.81,-1.3 1.83,-1.84 0.36,-1.01 4.98,-5.28 5.77,-6.08 1.68,-1.69 4.49,-4.1 5.89,-5.95 -0.53,-1.22 -2.97,-3.69 -4.26,-4.49l-8.8 8.39z"/>
  <path class="fil2" d="M262.75 222.74l0 88.53c0,34.75 -12.2,52.1 -36.57,52.1 -10.79,0 -19.93,-3.06 -27.46,-9.21 -7.49,-6.15 -11.24,-13.64 -11.24,-22.44 0,-5.22 1.06,-11.86 3.16,-19.86l14.57 -3.92c-2.2,9.55 -3.3,16.43 -3.3,20.69 0,14.92 4.43,22.37 13.33,22.37 5.12,0 7.7,-7.01 7.7,-21l0 -107.26 39.8 0zm126.4 0l0 92.34c0,31.65 -17.49,47.46 -52.48,47.46 -34.85,0 -52.27,-15.81 -52.27,-47.46l0 -92.34 39.8 0 0 93.55c0,12.1 1.72,20.35 5.19,24.78 3.47,4.43 9.86,6.63 19.21,6.63 18.11,0 27.15,-10.86 27.15,-32.61l0 -92.34 13.4 0zm111.38 38.59l-18.52 3.44c0.79,-3.71 1.17,-6.81 1.17,-9.31 0,-16.05 -9.69,-24.06 -29.04,-24.06 -15.29,0 -22.92,5.5 -22.92,16.53 0,8.25 8.56,15.33 25.64,21.24 32.96,11.34 49.42,28.15 49.42,50.38 0,13.02 -4.64,23.47 -13.88,31.38 -9.28,7.87 -21.58,11.82 -36.94,11.82 -34.02,0 -51.03,-13.16 -51.03,-39.52 0,-2.13 0.21,-4.78 0.58,-7.94l19.21 -4.23c-1.51,5.84 -2.27,10.89 -2.27,15.19 0,17.05 9.76,25.57 29.31,25.57 15.64,0 23.47,-6.15 23.47,-18.42 0,-9.14 -9.35,-17.18 -28.08,-24.09 -27.05,-9.93 -40.59,-25.81 -40.59,-47.63 0,-12.37 4.5,-22.3 13.54,-29.86 9.04,-7.56 20.89,-11.34 35.6,-11.34 30.21,0 45.33,13.61 45.33,40.86zm119.73 -38.59l0 13.82 -33.61 0 0 123.72 -42.27 0 0 -123.72 -34.02 0 0 -13.82 109.9 0z"/>
  <path class="fil2" d="M712.69 314.71c0,1.63 -0.53,2.56 -1.58,2.78 -0.17,0.03 -1.84,0.2 -5.01,0.51 -1.9,0.21 -4.74,0.45 -8.52,0.73 0.22,1.06 0.91,1.87 2.06,2.44 0.93,0.45 1.99,0.69 3.18,0.69 1.44,0 2.87,-0.38 4.33,-1.14 0.61,-0.38 1.22,-0.76 1.83,-1.14 0.34,0.16 0.92,0.98 1.72,2.45 0.8,1.48 1.21,2.41 1.21,2.81 0,0.11 -0.12,0.3 -0.36,0.55 -1.97,2.1 -5.02,3.15 -9.16,3.15 -3.84,0 -6.94,-1.12 -9.29,-3.36 -2.42,-2.27 -3.62,-5.31 -3.62,-9.11 0,-3.71 1.08,-6.74 3.24,-9.11 2.23,-2.45 5.18,-3.67 8.86,-3.67 3.09,0 5.72,1.13 7.88,3.38 2.16,2.25 3.24,4.94 3.24,8.05zm-8.47 -1.47c0,-1 -0.35,-1.87 -1.06,-2.63 -0.71,-0.76 -1.55,-1.14 -2.53,-1.14 -1.02,0 -1.86,0.42 -2.52,1.26 -0.61,0.79 -0.92,1.7 -0.92,2.75 0,0.43 0.22,0.64 0.68,0.64 1.19,0 3.05,-0.16 5.56,-0.5 0.54,-0.08 0.8,-0.2 0.8,-0.39zm25.26 -4.95c0,0.17 -0.12,0.38 -0.36,0.65 -0.45,-0.11 -0.9,-0.16 -1.34,-0.16 -0.95,0 -1.74,0.2 -2.39,0.63 -0.77,0.48 -1.16,1.15 -1.16,2.04 0,0.56 0.41,1.28 1.23,2.15 1.24,1.31 2.01,2.19 2.29,2.64 0.82,1.22 1.23,2.54 1.23,3.95 0,0.82 -0.16,1.69 -0.48,2.61 -0.37,1.02 -0.84,1.76 -1.4,2.23 -1.19,1.03 -2.57,1.9 -4.17,2.61 -1.72,0.74 -3.3,1.11 -4.75,1.11 -0.32,0 -1.05,-0.87 -2.17,-2.62 -1.13,-1.75 -1.69,-2.81 -1.69,-3.2 0,-0.14 0.09,-0.23 0.26,-0.26 1.13,-0.2 2.26,-0.42 3.41,-0.63 1.41,-0.45 2.12,-1.2 2.12,-2.23 0,-0.71 -0.41,-1.53 -1.23,-2.47 -1.47,-1.63 -2.23,-2.49 -2.29,-2.59 -0.82,-1.16 -1.23,-2.39 -1.23,-3.67 0,-2.42 1.22,-4.47 3.67,-6.17 2.19,-1.5 4.53,-2.25 7.03,-2.25 0.26,0 0.89,0.87 1.9,2.61 1.01,1.74 1.52,2.76 1.52,3.05zm19.67 12.5c0,0.49 -0.06,1.21 -0.18,2.2 -0.12,0.98 -0.18,1.7 -0.18,2.16 0,0.45 -0.05,0.75 -0.14,0.87 -0.1,0.13 -0.36,0.31 -0.8,0.56 -2.08,1.14 -4.38,1.71 -6.92,1.71 -4.64,0 -6.97,-1.78 -6.98,-5.34 0,-1.06 0.04,-2.66 0.12,-4.8 0.08,-2.14 0.12,-3.73 0.12,-4.8 0,-0.71 -0.41,-1.06 -1.24,-1.06 -0.07,0 -0.17,0 -0.32,0 -0.14,0.01 -0.25,0.02 -0.31,0.02 -0.61,0 -0.92,-0.22 -0.92,-0.65 0,-0.26 0.03,-0.66 0.07,-1.19 0.04,-0.54 0.06,-0.93 0.06,-1.19 0,-0.34 -0.02,-0.86 -0.06,-1.55 -0.04,-0.69 -0.07,-1.2 -0.07,-1.54 0,-0.33 0.52,-0.5 1.56,-0.54 0.58,-0.01 0.89,-0.17 0.94,-0.49 0.1,-0.61 0.13,-1.58 0.1,-2.9 -0.07,-2.08 -0.1,-3.07 -0.1,-2.97 0,-1.87 0.18,-2.81 0.54,-2.81 0.44,0 1.06,0.09 1.87,0.28 0.92,0.21 1.57,0.33 1.92,0.35 0.83,0.12 2.07,0.26 3.75,0.45 0.41,0.03 0.6,0.17 0.6,0.41 0,0.64 -0.05,1.62 -0.16,2.93 -0.11,1.3 -0.16,2.29 -0.16,2.95 0,0.79 0.23,1.19 0.69,1.19 0.56,0 1.41,-0.03 2.54,-0.07 1.14,-0.05 1.99,-0.07 2.57,-0.07 0.36,0 0.53,0.12 0.53,0.36 0,0.37 -0.04,0.93 -0.12,1.68 -0.08,0.74 -0.12,1.3 -0.12,1.67 0,0.39 0.01,0.95 0.02,1.69 0.02,0.74 0.03,1.3 0.03,1.69 0,0.34 -0.23,0.51 -0.7,0.51 -0.32,0 -0.86,-0.02 -1.61,-0.04 -0.75,-0.03 -1.3,-0.03 -1.61,-0.03l-1.81 0c-0.24,0 -0.36,0.36 -0.36,1.06 0,0.39 0,0.97 0,1.73 0.02,0.77 0.03,1.35 0.03,1.72 0,1.36 0.15,2.3 0.45,2.81 0.44,0.69 1.29,1.04 2.55,1.04 0.4,0 0.97,-0.09 1.72,-0.28 0.74,-0.18 1.27,-0.27 1.58,-0.27 0.34,0 0.5,0.17 0.5,0.53z"/>
  <path class="fil2" d="M839.63 321.6c0,0.3 -0.03,0.76 -0.1,1.36 -0.06,0.61 -0.1,1.07 -0.1,1.39 0,0.31 -0.01,0.81 -0.02,1.49 -0.01,0.68 -0.02,1.19 -0.02,1.51 0,0.34 -0.22,0.5 -0.66,0.5 -0.16,0 -0.79,-0.12 -1.88,-0.36 -1.21,-0.25 -3.48,-0.38 -6.79,-0.38 -1.03,0 -2.57,0.06 -4.62,0.16 -2.05,0.11 -3.57,0.16 -4.58,0.16 -0.35,0 -0.54,-0.16 -0.58,-0.5 -0.04,-0.45 -0.15,-1.12 -0.31,-2 -0.34,-1.35 -0.51,-2.13 -0.51,-2.33 0,-0.29 0.56,-0.52 1.68,-0.67 1.31,-0.17 2.15,-0.42 2.52,-0.72 1.35,-1.13 2.73,-2.57 4.15,-4.3 1.8,-2.18 2.7,-3.82 2.7,-4.91 0,-0.95 -0.34,-1.74 -1.03,-2.39 -0.69,-0.65 -1.5,-0.97 -2.45,-0.97 -1.07,0 -2.13,0.21 -3.18,0.64 -0.71,0.27 -1.45,0.65 -2.22,1.15 -0.65,0.42 -1.02,0.62 -1.08,0.62 -0.46,0 -0.68,-0.53 -0.68,-1.59 0,-0.83 -0.03,-1.43 -0.1,-1.8 -0.03,-0.17 -0.13,-0.53 -0.31,-1.08 -0.16,-0.47 -0.25,-0.81 -0.25,-1.04 0,-0.17 0.12,-0.34 0.34,-0.5 1.11,-0.79 2.58,-1.41 4.44,-1.86 1.66,-0.4 3.26,-0.6 4.82,-0.6 2.54,0 4.66,0.56 6.36,1.68 2.01,1.3 3.02,3.16 3.02,5.57 0,3.21 -2.44,6.96 -7.31,11.25 3.46,-0.16 6.18,-0.25 8.14,-0.25 0.4,0 0.6,0.25 0.6,0.74zm25.13 -6.39c0,3.44 -1.11,6.39 -3.34,8.85 -2.3,2.56 -5.16,3.83 -8.57,3.83 -3.41,0 -6.26,-1.28 -8.55,-3.83 -2.24,-2.47 -3.35,-5.41 -3.35,-8.85 0,-3.45 1.12,-6.39 3.35,-8.82 2.29,-2.52 5.14,-3.78 8.55,-3.78 3.41,0 6.26,1.26 8.55,3.78 2.24,2.45 3.36,5.39 3.36,8.82zm-7.41 0c0,-1.37 -0.4,-2.57 -1.2,-3.58 -0.85,-1.08 -1.95,-1.62 -3.3,-1.62 -1.37,0 -2.48,0.53 -3.32,1.6 -0.78,0.99 -1.18,2.19 -1.18,3.6 0,1.39 0.4,2.59 1.18,3.62 0.85,1.11 1.97,1.66 3.32,1.66 1.31,0 2.4,-0.57 3.28,-1.7 0.81,-1.04 1.22,-2.24 1.22,-3.58zm29.21 6.39c0,0.3 -0.03,0.76 -0.1,1.36 -0.06,0.61 -0.09,1.07 -0.09,1.39 0,0.31 -0.01,0.81 -0.02,1.49 -0.01,0.68 -0.02,1.19 -0.02,1.51 0,0.34 -0.22,0.5 -0.66,0.5 -0.16,0 -0.78,-0.12 -1.88,-0.36 -1.21,-0.25 -3.48,-0.38 -6.79,-0.38 -1.03,0 -2.57,0.06 -4.62,0.16 -2.05,0.11 -3.57,0.16 -4.58,0.16 -0.35,0 -0.54,-0.16 -0.58,-0.5 -0.04,-0.45 -0.14,-1.12 -0.31,-2 -0.34,-1.35 -0.51,-2.13 -0.51,-2.33 0,-0.29 0.56,-0.52 1.68,-0.67 1.31,-0.17 2.15,-0.42 2.52,-0.72 1.35,-1.13 2.73,-2.57 4.15,-4.3 1.8,-2.18 2.7,-3.82 2.7,-4.91 0,-0.95 -0.34,-1.74 -1.03,-2.39 -0.69,-0.65 -1.5,-0.97 -2.45,-0.97 -1.07,0 -2.13,0.21 -3.18,0.64 -0.71,0.27 -1.45,0.65 -2.22,1.15 -0.66,0.42 -1.02,0.62 -1.08,0.62 -0.46,0 -0.68,-0.53 -0.68,-1.59 0,-0.83 -0.03,-1.43 -0.1,-1.8 -0.03,-0.17 -0.13,-0.53 -0.31,-1.08 -0.16,-0.47 -0.25,-0.81 -0.25,-1.04 0,-0.17 0.12,-0.34 0.34,-0.5 1.11,-0.79 2.59,-1.41 4.44,-1.86 1.66,-0.4 3.26,-0.6 4.82,-0.6 2.54,0 4.66,0.56 6.36,1.68 2.01,1.3 3.02,3.16 3.02,5.57 0,3.21 -2.44,6.96 -7.31,11.25 3.46,-0.16 6.18,-0.25 8.14,-0.25 0.4,0 0.6,0.25 0.6,0.74zm25.13 -6.39c0,3.44 -1.11,6.39 -3.34,8.85 -2.3,2.56 -5.16,3.83 -8.57,3.83 -3.41,0 -6.26,-1.28 -8.55,-3.83 -2.24,-2.47 -3.35,-5.41 -3.35,-8.85 0,-3.45 1.12,-6.39 3.35,-8.82 2.29,-2.52 5.14,-3.78 8.55,-3.78 3.41,0 6.26,1.26 8.55,3.78 2.24,2.45 3.35,5.39 3.35,8.82zm-7.41 0c0,-1.37 -0.4,-2.57 -1.2,-3.58 -0.85,-1.08 -1.95,-1.62 -3.3,-1.62 -1.37,0 -2.48,0.53 -3.32,1.6 -0.79,0.99 -1.18,2.19 -1.18,3.6 0,1.39 0.39,2.59 1.18,3.62 0.85,1.11 1.96,1.66 3.32,1.66 1.31,0 2.4,-0.57 3.28,-1.7 0.81,-1.04 1.22,-2.24 1.22,-3.58z"/>
  <path class="fil6" d="M282.54 830.66l-37.52 -2.83 -17.69 67.22 -22.54 -26.11 11.44 -42.9 -5.88 -0.81 -24.81 21.42 -20.19 -23.39 63.48 -54.8 20.19 23.39 -28.32 24.44 52.32 3.37 9.5 11.01zm62.39 41.84l-43.63 71.62 -26.39 -16.08 43.63 -71.62 26.39 16.08zm112.29 48.48l-2.79 7.95 -24.62 -8.65 -25 71.17 -30.97 -10.88 25 -71.17 -24.92 -8.75 2.79 -7.95 80.5 28.28zm101.57 61.26l12.92 3.86c0.08,2.13 0.05,3.98 -0.09,5.53 -0.72,8.12 -5.04,14.26 -12.93,18.44 -7.92,4.18 -18.18,5.71 -30.75,4.6 -31.55,-2.79 -46.11,-18.1 -43.65,-45.93 1.17,-13.19 6.71,-23.49 16.63,-30.89 9.92,-7.39 22.24,-10.44 36.99,-9.14 23.02,2.03 33.76,11.73 32.23,29.1l-13.66 3.59c0.4,-2.43 0.68,-4.32 0.8,-5.67 1.09,-12.32 -4.67,-19.03 -17.27,-20.14 -13.34,-1.18 -21.17,11.3 -23.48,37.43 -1.99,22.46 4.47,34.35 19.38,35.67 6.17,0.55 11.44,-0.92 15.87,-4.38 4.43,-3.48 6.9,-8.08 7.41,-13.82 0.16,-1.84 0.03,-4.58 -0.4,-8.24zm88.15 -20.92l11.66 39.95 -29.66 8.66 -23.5 -80.5 29.66 -8.66 9.48 32.47 24.44 -7.13 -9.48 -32.47 29.66 -8.66 23.5 80.5 -29.66 8.66 -11.66 -39.95 -24.43 7.13zm138.02 -109.96l4.73 6.97 -31.67 21.47 14.25 21.02 26.64 -18.06 4.72 6.97 -26.63 18.06 18.63 27.47 37.1 -25.15 4.73 6.97 -62.68 42.5 -47.06 -69.41 57.24 -38.81zm85.07 -84.2l63.48 54.8 -15.48 17.94 -69.21 -0.95 40.13 34.64 -6.8 7.88 -63.48 -54.8 12.82 -14.84 75.16 0.7 -43.41 -37.48 6.8 -7.88z"/>
  <path id="1" class="fil7 str2" d="M282.54 830.66l-37.52 -2.83 -17.69 67.22 -22.54 -26.11 11.44 -42.9 -5.88 -0.81 -24.81 21.42 -20.19 -23.39 63.48 -54.8 20.19 23.39 -28.32 24.44 52.32 3.37 9.5 11.01zm62.39 41.84l-43.63 71.62 -26.39 -16.08 43.63 -71.62 26.39 16.08zm112.29 48.48l-2.79 7.95 -24.62 -8.65 -25 71.17 -30.97 -10.88 25 -71.17 -24.92 -8.75 2.79 -7.95 80.5 28.28zm101.57 61.26l12.92 3.86c0.08,2.13 0.05,3.98 -0.09,5.53 -0.72,8.12 -5.04,14.26 -12.93,18.44 -7.92,4.18 -18.18,5.71 -30.75,4.6 -31.55,-2.79 -46.11,-18.1 -43.65,-45.93 1.17,-13.19 6.71,-23.49 16.63,-30.89 9.92,-7.39 22.24,-10.44 36.99,-9.14 23.02,2.03 33.76,11.73 32.23,29.1l-13.66 3.59c0.4,-2.43 0.68,-4.32 0.8,-5.67 1.09,-12.32 -4.67,-19.03 -17.27,-20.14 -13.34,-1.18 -21.17,11.3 -23.48,37.43 -1.99,22.46 4.47,34.35 19.38,35.67 6.17,0.55 11.44,-0.92 15.87,-4.38 4.43,-3.48 6.9,-8.08 7.41,-13.82 0.16,-1.84 0.03,-4.58 -0.4,-8.24zm88.15 -20.92l11.66 39.95 -29.66 8.66 -23.5 -80.5 29.66 -8.66 9.48 32.47 24.44 -7.13 -9.48 -32.47 29.66 -8.66 23.5 80.5 -29.66 8.66 -11.66 -39.95 -24.43 7.13zm138.02 -109.96l4.73 6.97 -31.67 21.47 14.25 21.02 26.64 -18.06 4.72 6.97 -26.63 18.06 18.63 27.47 37.1 -25.15 4.73 6.97 -62.68 42.5 -47.06 -69.41 57.24 -38.81zm85.07 -84.2l63.48 54.8 -15.48 17.94 -69.21 -0.95 40.13 34.64 -6.8 7.88 -63.48 -54.8 12.82 -14.84 75.16 0.7 -43.41 -37.48 6.8 -7.88z"/>
 </g>
</svg>
